<?xml version="1.0" standalone="no"?>
<!DOCTYPE svg PUBLIC "-//W3C//DTD SVG 20010904//EN"
 "http://www.w3.org/TR/2001/REC-SVG-20010904/DTD/svg10.dtd">
<svg version="1.0" xmlns="http://www.w3.org/2000/svg"
 width="263.000000pt" height="263.000000pt" viewBox="0 0 263.000000 263.000000"
 preserveAspectRatio="xMidYMid meet">
<circle cx="50%" cy="50%" r="50%" fill="white"  stroke-width="0"/>

<g transform="translate(0.000000,263.000000) scale(0.100000,-0.100000)"
fill="#000000" stroke="none">
<path d="M1215 2534 c-75 -8 -210 -36 -282 -60 -351 -114 -654 -417 -771 -770
-33 -99 -69 -292 -59 -318 10 -26 189 -23 261 5 69 25 133 94 166 176 21 53
23 78 28 306 2 136 8 247 12 247 10 0 120 -92 120 -100 0 -3 -12 -10 -27 -16
-19 -6 7 -9 98 -9 68 0 144 -4 169 -8 41 -8 43 -8 25 6 -19 14 -18 16 14 53
65 74 75 70 84 -36 13 -155 70 -206 242 -219 l90 -6 2 -34 c4 -43 36 -79 80
-87 30 -6 33 -10 33 -40 0 -42 -37 -103 -82 -137 -84 -63 -164 -87 -289 -87
-106 0 -129 11 -129 63 0 32 -14 42 -30 22 -18 -21 -4 -81 23 -100 12 -8 40
-15 62 -15 61 0 73 -12 56 -52 -48 -121 -49 -147 -2 -293 16 -50 27 -93 24
-97 -2 -5 -26 -8 -54 -8 -42 0 -49 -3 -49 -20 0 -18 7 -20 88 -21 114 0 150
-13 179 -64 27 -47 30 -90 7 -99 -9 -3 -245 -6 -525 -6 -280 0 -509 -2 -509
-6 0 -11 80 -122 131 -180 148 -170 333 -294 533 -359 101 -33 287 -65 377
-65 169 0 403 57 560 135 105 53 171 101 272 195 85 80 217 242 217 267 0 10
-49 13 -213 13 -152 0 -216 3 -225 12 -10 10 -17 55 -9 59 1 1 115 5 252 8
334 8 331 25 -5 29 -239 2 -251 1 -270 -18 -12 -12 -20 -33 -20 -55 l0 -35
-217 2 -217 3 -15 26 c-18 32 -8 74 20 90 12 6 57 11 100 11 43 -1 81 3 84 8
10 16 -32 30 -87 30 -63 0 -94 18 -114 66 -18 43 -18 123 0 171 8 21 17 60 20
87 10 80 93 205 129 193 6 -2 26 -22 44 -44 l35 -42 -39 -21 c-21 -12 -29 -18
-18 -15 54 17 207 28 269 19 36 -6 66 -9 66 -7 0 2 -16 11 -35 19 -30 12 -34
17 -26 33 17 31 68 81 84 81 9 0 33 -21 53 -47 21 -27 41 -51 44 -55 3 -4 39
4 80 19 95 33 220 37 328 9 40 -10 76 -16 79 -12 10 10 -15 205 -37 291 -55
210 -160 387 -329 556 -149 148 -281 231 -463 292 -143 48 -360 75 -493 61z
m171 -319 c4 -9 19 -15 36 -15 27 0 30 -3 23 -22 -4 -13 -6 -35 -6 -51 1 -24
-2 -27 -22 -22 -15 4 -28 1 -36 -9 -19 -23 -29 -20 -36 13 -3 16 -13 32 -21
35 -20 8 -17 24 5 31 10 3 22 17 25 30 7 28 24 33 32 10z m483 -4 c8 -14 6
-22 -8 -36 -27 -24 -60 -6 -54 30 6 31 47 35 62 6z m-79 -325 c14 0 32 2 40 5
11 3 14 -4 12 -27 -2 -18 3 -36 12 -44 23 -18 20 -30 -9 -30 -15 0 -31 -9 -41
-25 -20 -30 -31 -32 -39 -6 -3 11 -19 24 -35 30 -33 11 -37 22 -15 41 8 7 15
26 15 42 0 25 3 29 18 22 9 -4 28 -8 42 -8z m460 -190 c0 -8 10 -22 22 -30
l22 -16 -22 -16 c-12 -8 -22 -24 -22 -35 0 -19 -1 -19 -22 -5 -12 9 -30 16
-39 16 -12 0 -16 10 -16 45 0 41 2 44 23 39 12 -3 25 -1 28 5 10 16 26 13 26
-3z"/>
<path d="M786 1792 c-9 -14 33 -52 57 -52 28 0 67 26 67 46 0 17 -14 18 -40 2
-16 -10 -24 -10 -40 0 -23 14 -37 15 -44 4z"/>
<path d="M965 1790 c-8 -13 31 -50 53 -50 24 0 62 28 62 46 0 16 -16 19 -25 4
-3 -5 -17 -10 -30 -10 -13 0 -27 5 -30 10 -8 13 -22 13 -30 0z"/>
<path d="M1532 1074 c7 -39 78 -44 92 -8 9 24 1 28 -23 12 -17 -10 -25 -10
-41 0 -26 16 -32 15 -28 -4z"/>
<path d="M1720 1081 c0 -38 73 -52 94 -19 14 23 2 32 -23 16 -17 -10 -25 -10
-41 0 -24 14 -30 15 -30 3z"/>
<path d="M1640 996 c0 -20 27 -39 45 -32 8 3 15 15 15 26 0 16 -7 20 -30 20
-19 0 -30 -5 -30 -14z"/>
</g>


</svg>
